<?xml version="1.0" encoding="utf-8"?>
<!-- Generator: Adobe Illustrator 26.5.3, SVG Export Plug-In . SVG Version: 6.00 Build 0)  -->
<svg version="1.1" id="Layer_1" xmlns="http://www.w3.org/2000/svg" xmlns:xlink="http://www.w3.org/1999/xlink" x="0px" y="0px"
	 viewBox="0 0 853.3 108.9" style="enable-background:new 0 0 853.3 108.9;" xml:space="preserve">
<style type="text/css">
	.st0{fill:#EDF1FA;}
	.st1{fill:#547DBF;}
	.st2{fill:#F0F0F5;}
</style>
<g>
	<circle class="st0" cx="61.1" cy="36.6" r="25.3"/>
	<circle class="st1" cx="61.1" cy="36.6" r="4"/>
	<circle class="st0" cx="307.2" cy="36.6" r="25.3"/>
	<circle class="st1" cx="307.2" cy="36.6" r="4"/>
	<circle class="st0" cx="553.4" cy="36.6" r="25.3"/>
	<circle class="st1" cx="553.4" cy="36.6" r="4"/>
	<circle class="st0" cx="789.4" cy="36.6" r="25.3"/>
	<circle class="st1" cx="789.4" cy="36.6" r="4"/>
</g>
<g>
	<path d="M2.8,102.6V90.1h4.7c1,0,1.7,0.1,2.3,0.4s1,0.6,1.4,1.2c0.3,0.5,0.5,1.1,0.5,1.7c0,0.5-0.1,1-0.4,1.5
		C11,95.4,10.6,95.8,10,96c0.8,0.2,1.3,0.6,1.7,1.1s0.6,1.2,0.6,1.9c0,0.6-0.1,1.1-0.4,1.6s-0.6,0.9-0.9,1.2
		c-0.4,0.3-0.8,0.5-1.4,0.6c-0.6,0.1-1.2,0.2-2,0.2L2.8,102.6L2.8,102.6z M4.4,95.3h2.7c0.7,0,1.3,0,1.6-0.1c0.4-0.1,0.7-0.3,1-0.6
		s0.3-0.7,0.3-1.1s-0.1-0.8-0.3-1.1s-0.5-0.5-0.9-0.7s-1-0.2-1.9-0.2H4.4V95.3z M4.4,101.1h3.1c0.5,0,0.9,0,1.1-0.1
		c0.4-0.1,0.7-0.2,1-0.3c0.3-0.2,0.5-0.4,0.6-0.7c0.2-0.3,0.2-0.7,0.2-1.1c0-0.5-0.1-0.9-0.4-1.2c-0.2-0.3-0.6-0.6-1-0.7
		s-1-0.2-1.8-0.2H4.4V101.1z"/>
	<path d="M20.3,101.5c-0.6,0.5-1.1,0.8-1.6,1s-1.1,0.3-1.7,0.3c-1,0-1.8-0.2-2.3-0.7s-0.8-1.1-0.8-1.9c0-0.4,0.1-0.9,0.3-1.2
		c0.2-0.4,0.5-0.7,0.8-0.9s0.7-0.4,1.1-0.5c0.3-0.1,0.8-0.2,1.4-0.2c1.2-0.1,2.2-0.3,2.7-0.5c0-0.2,0-0.3,0-0.4
		c0-0.6-0.1-1.1-0.4-1.3c-0.4-0.3-1-0.5-1.8-0.5c-0.7,0-1.3,0.1-1.6,0.4c-0.3,0.3-0.6,0.7-0.8,1.3l-1.5-0.2c0.1-0.6,0.4-1.2,0.7-1.6
		s0.8-0.7,1.4-0.9c0.6-0.2,1.3-0.3,2.1-0.3c0.8,0,1.4,0.1,1.9,0.3c0.5,0.2,0.8,0.4,1.1,0.7c0.2,0.3,0.4,0.6,0.5,1
		c0.1,0.3,0.1,0.7,0.1,1.4v2.1c0,1.4,0,2.3,0.1,2.7c0.1,0.4,0.2,0.7,0.4,1.1h-1.6C20.4,102.3,20.3,101.9,20.3,101.5z M20.1,98.1
		c-0.6,0.2-1.4,0.4-2.5,0.6c-0.6,0.1-1.1,0.2-1.3,0.3s-0.5,0.3-0.6,0.5s-0.2,0.5-0.2,0.7c0,0.4,0.2,0.8,0.5,1
		c0.3,0.3,0.8,0.4,1.4,0.4s1.1-0.1,1.6-0.4s0.8-0.6,1-1.1c0.2-0.3,0.2-0.9,0.2-1.5v-0.5H20.1z"/>
	<path d="M23.5,99.9l1.5-0.2c0.1,0.6,0.3,1.1,0.7,1.4s0.9,0.5,1.6,0.5s1.2-0.1,1.6-0.4c0.3-0.3,0.5-0.6,0.5-1c0-0.3-0.2-0.6-0.5-0.8
		c-0.2-0.1-0.7-0.3-1.6-0.5c-1.1-0.3-1.9-0.5-2.3-0.7s-0.8-0.5-1-0.9s-0.3-0.8-0.3-1.2c0-0.4,0.1-0.8,0.3-1.1
		c0.2-0.3,0.4-0.6,0.8-0.9c0.2-0.2,0.6-0.3,1-0.4s0.9-0.2,1.3-0.2c0.7,0,1.3,0.1,1.9,0.3s0.9,0.5,1.2,0.8c0.3,0.4,0.4,0.8,0.5,1.4
		l-1.5,0.2c-0.1-0.5-0.3-0.8-0.6-1.1c-0.3-0.3-0.8-0.4-1.4-0.4c-0.7,0-1.2,0.1-1.5,0.4c-0.3,0.2-0.5,0.5-0.5,0.8
		c0,0.2,0.1,0.4,0.2,0.5c0.1,0.2,0.3,0.3,0.6,0.4c0.2,0.1,0.6,0.2,1.4,0.4c1.1,0.3,1.8,0.5,2.3,0.7c0.4,0.2,0.8,0.5,1,0.8
		s0.4,0.8,0.4,1.3s-0.1,1-0.4,1.5s-0.7,0.8-1.3,1.1s-1.2,0.4-1.9,0.4c-1.2,0-2.1-0.2-2.7-0.7C24,101.6,23.6,100.9,23.5,99.9z"/>
	<path d="M32.8,91.8V90h1.5v1.8H32.8z M32.8,102.6v-9.1h1.5v9.1H32.8z"/>
	<path d="M42.6,99.3l1.5,0.2c-0.2,1-0.6,1.9-1.3,2.5s-1.5,0.9-2.5,0.9c-1.2,0-2.2-0.4-3-1.2c-0.8-0.8-1.1-2-1.1-3.5
		c0-1,0.2-1.8,0.5-2.6c0.3-0.7,0.8-1.3,1.5-1.7c0.7-0.4,1.4-0.6,2.2-0.6c1,0,1.8,0.2,2.4,0.7c0.6,0.5,1,1.2,1.2,2.1l-1.5,0.2
		c-0.1-0.6-0.4-1.1-0.8-1.4c-0.4-0.3-0.8-0.5-1.3-0.5c-0.8,0-1.4,0.3-1.9,0.8c-0.5,0.6-0.7,1.4-0.7,2.6s0.2,2.1,0.7,2.7
		s1.1,0.8,1.8,0.8c0.6,0,1.1-0.2,1.5-0.6C42.3,100.6,42.5,100.1,42.6,99.3z"/>
	<path d="M56.6,99.7l1.6,0.2c-0.3,0.9-0.7,1.7-1.4,2.2s-1.5,0.8-2.6,0.8c-1.3,0-2.4-0.4-3.2-1.2c-0.8-0.8-1.2-2-1.2-3.4
		c0-1.5,0.4-2.7,1.2-3.6c0.8-0.8,1.8-1.3,3.1-1.3c1.2,0,2.2,0.4,3,1.2c0.8,0.8,1.2,2,1.2,3.5c0,0.1,0,0.2,0,0.4h-6.8
		c0.1,1,0.3,1.8,0.8,2.3s1.1,0.8,1.9,0.8c0.6,0,1-0.1,1.4-0.4C56,100.8,56.3,100.3,56.6,99.7z M51.5,97.2h5.1
		c-0.1-0.8-0.3-1.3-0.6-1.7c-0.5-0.6-1.1-0.9-1.9-0.9c-0.7,0-1.3,0.2-1.8,0.7C51.8,95.8,51.6,96.4,51.5,97.2z"/>
	<path d="M60.1,102.6V90.1h1.5v12.5H60.1z"/>
	<path d="M70.2,99.7l1.6,0.2c-0.3,0.9-0.7,1.7-1.4,2.2c-0.7,0.5-1.5,0.8-2.6,0.8c-1.3,0-2.4-0.4-3.2-1.2c-0.8-0.8-1.2-2-1.2-3.4
		c0-1.5,0.4-2.7,1.2-3.6c0.8-0.8,1.8-1.3,3.1-1.3c1.2,0,2.2,0.4,3,1.2c0.8,0.8,1.2,2,1.2,3.5c0,0.1,0,0.2,0,0.4h-6.8
		c0.1,1,0.3,1.8,0.8,2.3s1.1,0.8,1.9,0.8c0.6,0,1-0.1,1.4-0.4C69.6,100.8,70,100.3,70.2,99.7z M65.1,97.2h5.1
		c-0.1-0.8-0.3-1.3-0.6-1.7c-0.5-0.6-1.1-0.9-1.9-0.9c-0.7,0-1.3,0.2-1.8,0.7C65.5,95.8,65.2,96.4,65.1,97.2z"/>
	<path d="M73.7,102.6v-9.1h1.4v1.3c0.3-0.4,0.7-0.8,1.1-1.1c0.5-0.3,1-0.4,1.6-0.4c0.7,0,1.2,0.1,1.7,0.4c0.4,0.3,0.7,0.7,0.9,1.2
		c0.7-1.1,1.7-1.6,2.8-1.6c0.9,0,1.6,0.2,2.1,0.7s0.7,1.3,0.7,2.3v6.2h-1.5v-5.7c0-0.6-0.1-1.1-0.1-1.3c-0.1-0.3-0.3-0.5-0.5-0.7
		c-0.3-0.2-0.6-0.2-0.9-0.2c-0.6,0-1.2,0.2-1.6,0.6s-0.6,1.1-0.6,2v5.3h-1.5v-5.9c0-0.7-0.1-1.2-0.4-1.5s-0.7-0.5-1.2-0.5
		c-0.4,0-0.8,0.1-1.2,0.3c-0.4,0.2-0.6,0.6-0.8,1c-0.2,0.4-0.2,1.1-0.2,1.9v4.7L73.7,102.6L73.7,102.6z"/>
	<path d="M94.5,99.7l1.6,0.2c-0.3,0.9-0.7,1.7-1.4,2.2c-0.7,0.5-1.5,0.8-2.6,0.8c-1.3,0-2.4-0.4-3.2-1.2c-0.8-0.8-1.2-2-1.2-3.4
		c0-1.5,0.4-2.7,1.2-3.6c0.8-0.8,1.8-1.3,3.1-1.3c1.2,0,2.2,0.4,3,1.2c0.8,0.8,1.2,2,1.2,3.5c0,0.1,0,0.2,0,0.4h-6.8
		c0.1,1,0.3,1.8,0.8,2.3s1.1,0.8,1.9,0.8c0.6,0,1-0.1,1.4-0.4C94,100.8,94.3,100.3,94.5,99.7z M89.5,97.2h5.1
		c-0.1-0.8-0.3-1.3-0.6-1.7c-0.5-0.6-1.1-0.9-1.9-0.9c-0.7,0-1.3,0.2-1.8,0.7C89.8,95.8,89.5,96.4,89.5,97.2z"/>
	<path d="M98.1,102.6v-9.1h1.4v1.3c0.7-1,1.6-1.5,2.9-1.5c0.5,0,1.1,0.1,1.5,0.3c0.5,0.2,0.8,0.5,1,0.8s0.4,0.7,0.5,1.1
		c0.1,0.3,0.1,0.8,0.1,1.5v5.6H104v-5.5c0-0.6-0.1-1.1-0.2-1.4s-0.3-0.6-0.6-0.7c-0.3-0.2-0.7-0.3-1.1-0.3c-0.7,0-1.2,0.2-1.7,0.6
		s-0.7,1.2-0.7,2.4v5h-1.6V102.6z"/>
	<path d="M111.2,101.2l0.2,1.4c-0.4,0.1-0.8,0.1-1.2,0.1c-0.6,0-1-0.1-1.3-0.3c-0.3-0.2-0.5-0.4-0.6-0.7c-0.1-0.3-0.2-0.9-0.2-1.8
		v-5.2H107v-1.2h1.1v-2.2l1.5-0.9v3.2h1.5v1.2h-1.5v5.3c0,0.4,0,0.7,0.1,0.8c0.1,0.1,0.1,0.2,0.3,0.3c0.1,0.1,0.3,0.1,0.5,0.1
		S110.9,101.3,111.2,101.2z"/>
	<path d="M112,99.9l1.5-0.2c0.1,0.6,0.3,1.1,0.7,1.4s0.9,0.5,1.6,0.5s1.2-0.1,1.6-0.4c0.3-0.3,0.5-0.6,0.5-1c0-0.3-0.2-0.6-0.5-0.8
		c-0.2-0.1-0.7-0.3-1.6-0.5c-1.1-0.3-1.9-0.5-2.3-0.7s-0.8-0.5-1-0.9s-0.3-0.8-0.3-1.2c0-0.4,0.1-0.8,0.3-1.1
		c0.2-0.3,0.4-0.6,0.8-0.9c0.2-0.2,0.6-0.3,1-0.4s0.9-0.2,1.3-0.2c0.7,0,1.3,0.1,1.9,0.3s0.9,0.5,1.2,0.8c0.3,0.4,0.4,0.8,0.5,1.4
		l-1.5,0.2c-0.1-0.5-0.3-0.8-0.6-1.1c-0.3-0.3-0.8-0.4-1.4-0.4c-0.7,0-1.2,0.1-1.5,0.4c-0.3,0.2-0.5,0.5-0.5,0.8
		c0,0.2,0.1,0.4,0.2,0.5c0.1,0.2,0.3,0.3,0.6,0.4c0.2,0.1,0.6,0.2,1.4,0.4c1.1,0.3,1.8,0.5,2.3,0.7c0.4,0.2,0.8,0.5,1,0.8
		s0.4,0.8,0.4,1.3s-0.1,1-0.4,1.5s-0.7,0.8-1.3,1.1s-1.2,0.4-1.9,0.4c-1.2,0-2.1-0.2-2.7-0.7C112.6,101.6,112.2,100.9,112,99.9z"/>
</g>
<g>
	<path d="M267.1,98.2l1.7,0.4c-0.3,1.4-1,2.4-1.9,3.1s-2,1.1-3.3,1.1c-1.4,0-2.5-0.3-3.3-0.8c-0.8-0.6-1.5-1.3-1.9-2.4
		c-0.4-1-0.7-2.2-0.7-3.4c0-1.3,0.2-2.4,0.7-3.4s1.2-1.7,2.1-2.2s1.9-0.8,3-0.8c1.3,0,2.3,0.3,3.2,1c0.9,0.6,1.5,1.5,1.8,2.7
		l-1.6,0.4c-0.3-0.9-0.7-1.6-1.3-2c-0.6-0.4-1.2-0.6-2.1-0.6c-1,0-1.8,0.2-2.4,0.7s-1.1,1.1-1.4,1.9s-0.4,1.6-0.4,2.4
		c0,1.1,0.2,2,0.5,2.8s0.8,1.4,1.4,1.8s1.4,0.6,2.1,0.6c0.9,0,1.7-0.3,2.4-0.8S266.8,99.3,267.1,98.2z"/>
	<path d="M270,98.1c0-1.7,0.5-2.9,1.4-3.7c0.8-0.7,1.7-1,2.9-1c1.2,0,2.3,0.4,3.1,1.2c0.8,0.8,1.2,1.9,1.2,3.4
		c0,1.2-0.2,2.1-0.5,2.8c-0.4,0.7-0.9,1.2-1.5,1.6c-0.7,0.4-1.4,0.6-2.2,0.6c-1.3,0-2.3-0.4-3.1-1.2C270.4,100.8,270,99.6,270,98.1z
		 M271.6,98.1c0,1.2,0.3,2,0.8,2.6s1.1,0.9,1.9,0.9s1.4-0.3,1.9-0.9s0.8-1.5,0.8-2.7c0-1.1-0.3-2-0.8-2.6s-1.1-0.9-1.9-0.9
		s-1.4,0.3-1.9,0.9C271.8,96,271.6,96.9,271.6,98.1z"/>
	<path d="M280.3,102.6v-9.1h1.4v1.3c0.3-0.4,0.7-0.8,1.1-1.1c0.5-0.3,1-0.4,1.6-0.4c0.7,0,1.2,0.1,1.7,0.4c0.4,0.3,0.7,0.7,0.9,1.2
		c0.7-1.1,1.7-1.6,2.8-1.6c0.9,0,1.6,0.2,2.1,0.7s0.7,1.3,0.7,2.3v6.2h-1.5v-5.7c0-0.6-0.1-1.1-0.1-1.3c-0.1-0.3-0.3-0.5-0.5-0.7
		c-0.3-0.2-0.6-0.2-0.9-0.2c-0.6,0-1.2,0.2-1.6,0.6s-0.6,1.1-0.6,2v5.3h-1.5v-5.9c0-0.7-0.1-1.2-0.4-1.5s-0.7-0.5-1.2-0.5
		c-0.4,0-0.8,0.1-1.2,0.3c-0.4,0.2-0.6,0.6-0.8,1c-0.2,0.4-0.2,1.1-0.2,1.9v4.7L280.3,102.6L280.3,102.6z"/>
	<path d="M294.9,106.1V93.5h1.4v1.2c0.3-0.5,0.7-0.8,1.1-1s0.9-0.3,1.5-0.3c0.8,0,1.5,0.2,2.1,0.6s1,1,1.3,1.7s0.5,1.5,0.5,2.4
		s-0.2,1.8-0.5,2.5s-0.8,1.3-1.5,1.7c-0.6,0.4-1.3,0.6-2,0.6c-0.5,0-1-0.1-1.4-0.3c-0.4-0.2-0.7-0.5-1-0.8v4.4L294.9,106.1
		L294.9,106.1z M296.3,98.1c0,1.2,0.2,2,0.7,2.6s1,0.8,1.7,0.8s1.3-0.3,1.8-0.9s0.7-1.5,0.7-2.7s-0.2-2-0.7-2.6s-1-0.9-1.7-0.9
		s-1.2,0.3-1.7,0.9C296.5,96.1,296.3,97,296.3,98.1z"/>
	<path d="M304.1,98.1c0-1.7,0.5-2.9,1.4-3.7c0.8-0.7,1.7-1,2.9-1c1.2,0,2.3,0.4,3.1,1.2c0.8,0.8,1.2,1.9,1.2,3.4
		c0,1.2-0.2,2.1-0.5,2.8c-0.4,0.7-0.9,1.2-1.5,1.6c-0.7,0.4-1.4,0.6-2.2,0.6c-1.3,0-2.3-0.4-3.1-1.2
		C304.5,100.8,304.1,99.6,304.1,98.1z M305.7,98.1c0,1.2,0.3,2,0.8,2.6s1.1,0.9,1.9,0.9s1.4-0.3,1.9-0.9s0.8-1.5,0.8-2.7
		c0-1.1-0.3-2-0.8-2.6s-1.1-0.9-1.9-0.9s-1.4,0.3-1.9,0.9C305.9,96,305.7,96.9,305.7,98.1z"/>
	<path d="M314.4,102.6v-9.1h1.4v1.3c0.7-1,1.6-1.5,2.9-1.5c0.5,0,1.1,0.1,1.5,0.3c0.5,0.2,0.8,0.5,1,0.8s0.4,0.7,0.5,1.1
		c0.1,0.3,0.1,0.8,0.1,1.5v5.6h-1.5v-5.5c0-0.6-0.1-1.1-0.2-1.4s-0.3-0.6-0.6-0.7c-0.3-0.2-0.7-0.3-1.1-0.3c-0.7,0-1.2,0.2-1.7,0.6
		s-0.7,1.2-0.7,2.4v5h-1.6V102.6z"/>
	<path d="M330.3,99.7l1.6,0.2c-0.3,0.9-0.7,1.7-1.4,2.2c-0.7,0.5-1.5,0.8-2.6,0.8c-1.3,0-2.4-0.4-3.2-1.2c-0.8-0.8-1.2-2-1.2-3.4
		c0-1.5,0.4-2.7,1.2-3.6c0.8-0.8,1.8-1.3,3.1-1.3c1.2,0,2.2,0.4,3,1.2c0.8,0.8,1.2,2,1.2,3.5c0,0.1,0,0.2,0,0.4h-6.8
		c0.1,1,0.3,1.8,0.8,2.3s1.1,0.8,1.9,0.8c0.6,0,1-0.1,1.4-0.4C329.8,100.8,330.1,100.3,330.3,99.7z M325.3,97.2h5.1
		c-0.1-0.8-0.3-1.3-0.6-1.7c-0.5-0.6-1.1-0.9-1.9-0.9c-0.7,0-1.3,0.2-1.8,0.7C325.6,95.8,325.3,96.4,325.3,97.2z"/>
	<path d="M333.9,102.6v-9.1h1.4v1.3c0.7-1,1.6-1.5,2.9-1.5c0.5,0,1.1,0.1,1.5,0.3c0.5,0.2,0.8,0.5,1,0.8s0.4,0.7,0.5,1.1
		c0.1,0.3,0.1,0.8,0.1,1.5v5.6h-1.5v-5.5c0-0.6-0.1-1.1-0.2-1.4s-0.3-0.6-0.6-0.7c-0.3-0.2-0.7-0.3-1.1-0.3c-0.7,0-1.2,0.2-1.7,0.6
		s-0.7,1.2-0.7,2.4v5h-1.6V102.6z"/>
	<path d="M347,101.2l0.2,1.4c-0.4,0.1-0.8,0.1-1.2,0.1c-0.6,0-1-0.1-1.3-0.3c-0.3-0.2-0.5-0.4-0.6-0.7c-0.1-0.3-0.2-0.9-0.2-1.8
		v-5.2h-1.1v-1.2h1.1v-2.2l1.5-0.9v3.2h1.5v1.2h-1.5v5.3c0,0.4,0,0.7,0.1,0.8c0.1,0.1,0.1,0.2,0.3,0.3c0.1,0.1,0.3,0.1,0.5,0.1
		S346.7,101.3,347,101.2z"/>
	<path d="M347.9,99.9l1.5-0.2c0.1,0.6,0.3,1.1,0.7,1.4s0.9,0.5,1.6,0.5s1.2-0.1,1.6-0.4c0.3-0.3,0.5-0.6,0.5-1
		c0-0.3-0.2-0.6-0.5-0.8c-0.2-0.1-0.7-0.3-1.6-0.5c-1.1-0.3-1.9-0.5-2.3-0.7s-0.8-0.5-1-0.9s-0.3-0.8-0.3-1.2c0-0.4,0.1-0.8,0.3-1.1
		c0.2-0.3,0.4-0.6,0.8-0.9c0.2-0.2,0.6-0.3,1-0.4s0.9-0.2,1.3-0.2c0.7,0,1.3,0.1,1.9,0.3s0.9,0.5,1.2,0.8c0.3,0.4,0.4,0.8,0.5,1.4
		l-1.5,0.2c-0.1-0.5-0.3-0.8-0.6-1.1c-0.3-0.3-0.8-0.4-1.4-0.4c-0.7,0-1.2,0.1-1.5,0.4c-0.3,0.2-0.5,0.5-0.5,0.8
		c0,0.2,0.1,0.4,0.2,0.5c0.1,0.2,0.3,0.3,0.6,0.4c0.2,0.1,0.6,0.2,1.4,0.4c1.1,0.3,1.8,0.5,2.3,0.7c0.4,0.2,0.8,0.5,1,0.8
		s0.4,0.8,0.4,1.3s-0.1,1-0.4,1.5s-0.7,0.8-1.3,1.1s-1.2,0.4-1.9,0.4c-1.2,0-2.1-0.2-2.7-0.7C348.4,101.6,348,100.9,347.9,99.9z"/>
</g>
<g>
	<path d="M472.9,98.2l1.7,0.4c-0.3,1.4-1,2.4-1.9,3.1s-2,1.1-3.3,1.1c-1.4,0-2.5-0.3-3.3-0.8c-0.8-0.6-1.5-1.3-1.9-2.4
		c-0.4-1-0.7-2.2-0.7-3.4c0-1.3,0.2-2.4,0.7-3.4s1.2-1.7,2.1-2.2s1.9-0.8,3-0.8c1.3,0,2.3,0.3,3.2,1s1.5,1.5,1.8,2.7l-1.6,0.4
		c-0.3-0.9-0.7-1.6-1.3-2c-0.6-0.4-1.2-0.6-2.1-0.6c-1,0-1.8,0.2-2.4,0.7s-1.1,1.1-1.4,1.9s-0.4,1.6-0.4,2.4c0,1.1,0.2,2,0.5,2.8
		s0.8,1.4,1.4,1.8c0.7,0.4,1.4,0.6,2.1,0.6c0.9,0,1.7-0.3,2.4-0.8S472.7,99.3,472.9,98.2z"/>
	<path d="M475.9,98.1c0-1.7,0.5-2.9,1.4-3.7c0.8-0.7,1.7-1,2.9-1c1.2,0,2.3,0.4,3.1,1.2c0.8,0.8,1.2,1.9,1.2,3.4
		c0,1.2-0.2,2.1-0.5,2.8c-0.4,0.7-0.9,1.2-1.5,1.6c-0.7,0.4-1.4,0.6-2.2,0.6c-1.3,0-2.3-0.4-3.1-1.2
		C476.3,100.8,475.9,99.6,475.9,98.1z M477.5,98.1c0,1.2,0.3,2,0.8,2.6s1.1,0.9,1.9,0.9s1.4-0.3,1.9-0.9s0.8-1.5,0.8-2.7
		c0-1.1-0.3-2-0.8-2.6s-1.1-0.9-1.9-0.9s-1.4,0.3-1.9,0.9S477.5,96.9,477.5,98.1z"/>
	<path d="M486.2,102.6v-9.1h1.4v1.3c0.3-0.4,0.7-0.8,1.1-1.1c0.5-0.3,1-0.4,1.6-0.4c0.7,0,1.2,0.1,1.7,0.4s0.7,0.7,0.9,1.2
		c0.7-1.1,1.7-1.6,2.8-1.6c0.9,0,1.6,0.2,2.1,0.7s0.7,1.3,0.7,2.3v6.2H497v-5.7c0-0.6-0.1-1.1-0.2-1.3c-0.1-0.3-0.3-0.5-0.5-0.7
		c-0.3-0.2-0.6-0.2-0.9-0.2c-0.6,0-1.2,0.2-1.6,0.6s-0.6,1.1-0.6,2v5.3h-1.5v-5.9c0-0.7-0.1-1.2-0.4-1.5s-0.7-0.5-1.2-0.5
		c-0.4,0-0.8,0.1-1.2,0.3c-0.4,0.2-0.6,0.6-0.8,1c-0.2,0.4-0.2,1.1-0.2,1.9v4.7L486.2,102.6L486.2,102.6z"/>
	<path d="M502.2,102.6h-1.4V90.1h1.5v4.5c0.7-0.8,1.5-1.2,2.5-1.2c0.6,0,1.1,0.1,1.6,0.3c0.5,0.2,0.9,0.5,1.2,1
		c0.3,0.4,0.6,0.9,0.8,1.5c0.2,0.6,0.3,1.2,0.3,1.8c0,1.6-0.4,2.8-1.2,3.6s-1.7,1.3-2.8,1.3c-1.1,0-1.9-0.4-2.5-1.3V102.6z
		 M502.2,98c0,1.1,0.1,1.9,0.4,2.4c0.5,0.8,1.1,1.2,2,1.2c0.7,0,1.3-0.3,1.7-0.9c0.5-0.6,0.7-1.5,0.7-2.6c0-1.2-0.2-2.1-0.7-2.6
		c-0.5-0.6-1-0.8-1.7-0.8s-1.3,0.3-1.7,0.9C502.4,96.1,502.2,96.9,502.2,98z"/>
	<path d="M510.5,91.8V90h1.5v1.8H510.5z M510.5,102.6v-9.1h1.5v9.1H510.5z"/>
	<path d="M514.4,102.6v-9.1h1.4v1.3c0.7-1,1.6-1.5,2.9-1.5c0.5,0,1.1,0.1,1.5,0.3c0.5,0.2,0.8,0.5,1,0.8s0.4,0.7,0.5,1.1
		c0.1,0.3,0.1,0.8,0.1,1.5v5.6h-1.5v-5.5c0-0.6-0.1-1.1-0.2-1.4c-0.1-0.3-0.3-0.6-0.6-0.7c-0.3-0.2-0.7-0.3-1.1-0.3
		c-0.7,0-1.2,0.2-1.7,0.6s-0.7,1.2-0.7,2.4v5h-1.6V102.6z"/>
	<path d="M530.4,99.7l1.6,0.2c-0.3,0.9-0.7,1.7-1.4,2.2s-1.5,0.8-2.6,0.8c-1.3,0-2.4-0.4-3.2-1.2c-0.8-0.8-1.2-2-1.2-3.4
		c0-1.5,0.4-2.7,1.2-3.6s1.8-1.3,3.1-1.3c1.2,0,2.2,0.4,3,1.2c0.8,0.8,1.2,2,1.2,3.5c0,0.1,0,0.2,0,0.4h-6.8c0.1,1,0.3,1.8,0.8,2.3
		s1.1,0.8,1.9,0.8c0.6,0,1-0.1,1.4-0.4C529.8,100.8,530.1,100.3,530.4,99.7z M525.3,97.2h5.1c-0.1-0.8-0.3-1.3-0.6-1.7
		c-0.5-0.6-1.1-0.9-1.9-0.9c-0.7,0-1.3,0.2-1.8,0.7C525.6,95.8,525.4,96.4,525.3,97.2z"/>
	<path d="M539.8,102.6v-1.1c-0.6,0.9-1.4,1.4-2.5,1.4c-0.7,0-1.4-0.2-2-0.6s-1.1-1-1.4-1.7c-0.3-0.7-0.5-1.5-0.5-2.5
		c0-0.9,0.2-1.7,0.5-2.5c0.3-0.7,0.8-1.3,1.4-1.7c0.6-0.4,1.3-0.6,2-0.6c0.5,0,1,0.1,1.5,0.3c0.4,0.2,0.8,0.5,1,0.9V90h1.5v12.5
		L539.8,102.6L539.8,102.6z M534.9,98.1c0,1.2,0.2,2,0.7,2.6s1.1,0.9,1.7,0.9c0.7,0,1.2-0.3,1.7-0.8c0.5-0.6,0.7-1.4,0.7-2.5
		c0-1.2-0.2-2.2-0.7-2.7c-0.5-0.6-1.1-0.9-1.8-0.9s-1.3,0.3-1.7,0.8S534.9,96.9,534.9,98.1z"/>
	<path d="M554.4,99.3l1.5,0.2c-0.2,1-0.6,1.9-1.3,2.5s-1.5,0.9-2.5,0.9c-1.2,0-2.2-0.4-3-1.2c-0.8-0.8-1.1-2-1.1-3.5
		c0-1,0.2-1.8,0.5-2.6s0.8-1.3,1.5-1.7c0.7-0.4,1.4-0.6,2.2-0.6c1,0,1.8,0.2,2.4,0.7c0.6,0.5,1,1.2,1.2,2.1l-1.5,0.2
		c-0.1-0.6-0.4-1.1-0.8-1.4c-0.4-0.3-0.8-0.5-1.3-0.5c-0.8,0-1.4,0.3-1.9,0.8c-0.5,0.6-0.7,1.4-0.7,2.6s0.2,2.1,0.7,2.7
		s1.1,0.8,1.8,0.8c0.6,0,1.1-0.2,1.5-0.6C554.1,100.6,554.3,100.1,554.4,99.3z"/>
	<path d="M556.7,98.1c0-1.7,0.5-2.9,1.4-3.7c0.8-0.7,1.7-1,2.9-1s2.3,0.4,3.1,1.2c0.8,0.8,1.2,1.9,1.2,3.4c0,1.2-0.2,2.1-0.5,2.8
		c-0.4,0.7-0.9,1.2-1.5,1.6c-0.7,0.4-1.4,0.6-2.2,0.6c-1.3,0-2.3-0.4-3.1-1.2C557.1,100.8,556.7,99.6,556.7,98.1z M558.3,98.1
		c0,1.2,0.3,2,0.8,2.6s1.1,0.9,1.9,0.9c0.8,0,1.4-0.3,1.9-0.9s0.8-1.5,0.8-2.7c0-1.1-0.3-2-0.8-2.6s-1.1-0.9-1.9-0.9
		c-0.8,0-1.4,0.3-1.9,0.9S558.3,96.9,558.3,98.1z"/>
	<path d="M567,102.6v-9.1h1.4v1.3c0.3-0.4,0.7-0.8,1.1-1.1c0.5-0.3,1-0.4,1.6-0.4c0.7,0,1.2,0.1,1.7,0.4c0.4,0.3,0.7,0.7,0.9,1.2
		c0.7-1.1,1.7-1.6,2.8-1.6c0.9,0,1.6,0.2,2.1,0.7s0.7,1.3,0.7,2.3v6.2h-1.5v-5.7c0-0.6,0-1.1-0.1-1.3c-0.1-0.3-0.3-0.5-0.5-0.7
		c-0.3-0.2-0.6-0.2-0.9-0.2c-0.6,0-1.2,0.2-1.6,0.6s-0.6,1.1-0.6,2v5.3h-1.5v-5.9c0-0.7-0.1-1.2-0.4-1.5c-0.3-0.3-0.7-0.5-1.2-0.5
		c-0.4,0-0.8,0.1-1.2,0.3c-0.4,0.2-0.6,0.6-0.8,1s-0.2,1.1-0.2,1.9v4.7L567,102.6L567,102.6z"/>
	<path d="M581.6,106.1V93.5h1.4v1.2c0.3-0.5,0.7-0.8,1.1-1c0.4-0.2,0.9-0.3,1.5-0.3c0.8,0,1.5,0.2,2.1,0.6s1,1,1.3,1.7
		s0.5,1.5,0.5,2.4s-0.2,1.8-0.5,2.5s-0.8,1.3-1.5,1.7c-0.6,0.4-1.3,0.6-2,0.6c-0.5,0-1-0.1-1.4-0.3c-0.4-0.2-0.7-0.5-1-0.8v4.4
		L581.6,106.1L581.6,106.1z M583,98.1c0,1.2,0.2,2,0.7,2.6s1,0.8,1.7,0.8s1.3-0.3,1.8-0.9s0.7-1.5,0.7-2.7s-0.2-2-0.7-2.6
		s-1-0.9-1.7-0.9s-1.2,0.3-1.7,0.9C583.2,96.1,583,97,583,98.1z"/>
	<path d="M590.8,98.1c0-1.7,0.5-2.9,1.4-3.7c0.8-0.7,1.7-1,2.9-1s2.3,0.4,3.1,1.2c0.8,0.8,1.2,1.9,1.2,3.4c0,1.2-0.2,2.1-0.5,2.8
		c-0.4,0.7-0.9,1.2-1.5,1.6c-0.7,0.4-1.4,0.6-2.2,0.6c-1.3,0-2.3-0.4-3.1-1.2C591.2,100.8,590.8,99.6,590.8,98.1z M592.4,98.1
		c0,1.2,0.3,2,0.8,2.6s1.1,0.9,1.9,0.9c0.8,0,1.4-0.3,1.9-0.9s0.8-1.5,0.8-2.7c0-1.1-0.3-2-0.8-2.6s-1.1-0.9-1.9-0.9
		c-0.8,0-1.4,0.3-1.9,0.9S592.4,96.9,592.4,98.1z"/>
	<path d="M601.1,102.6v-9.1h1.4v1.3c0.7-1,1.6-1.5,2.9-1.5c0.5,0,1.1,0.1,1.5,0.3c0.5,0.2,0.8,0.5,1,0.8s0.4,0.7,0.5,1.1
		c0.1,0.3,0.1,0.8,0.1,1.5v5.6H607v-5.5c0-0.6-0.1-1.1-0.2-1.4c-0.1-0.3-0.3-0.6-0.6-0.7c-0.3-0.2-0.7-0.3-1.1-0.3
		c-0.7,0-1.2,0.2-1.7,0.6s-0.7,1.2-0.7,2.4v5h-1.6V102.6z"/>
	<path d="M617,99.7l1.6,0.2c-0.3,0.9-0.7,1.7-1.4,2.2s-1.5,0.8-2.6,0.8c-1.3,0-2.4-0.4-3.2-1.2c-0.8-0.8-1.2-2-1.2-3.4
		c0-1.5,0.4-2.7,1.2-3.6c0.8-0.8,1.8-1.3,3.1-1.3c1.2,0,2.2,0.4,3,1.2c0.8,0.8,1.2,2,1.2,3.5c0,0.1,0,0.2,0,0.4h-6.8
		c0.1,1,0.3,1.8,0.8,2.3s1.1,0.8,1.9,0.8c0.6,0,1-0.1,1.4-0.4C616.5,100.8,616.8,100.3,617,99.7z M612,97.2h5.1
		c-0.1-0.8-0.3-1.3-0.6-1.7c-0.5-0.6-1.1-0.9-1.9-0.9c-0.7,0-1.3,0.2-1.8,0.7C612.3,95.8,612,96.4,612,97.2z"/>
	<path d="M620.6,102.6v-9.1h1.4v1.3c0.7-1,1.6-1.5,2.9-1.5c0.5,0,1.1,0.1,1.5,0.3c0.5,0.2,0.8,0.5,1,0.8s0.4,0.7,0.5,1.1
		c0.1,0.3,0.1,0.8,0.1,1.5v5.6h-1.5v-5.5c0-0.6-0.1-1.1-0.2-1.4c-0.1-0.3-0.3-0.6-0.6-0.7c-0.3-0.2-0.7-0.3-1.1-0.3
		c-0.7,0-1.2,0.2-1.7,0.6s-0.7,1.2-0.7,2.4v5h-1.6V102.6z"/>
	<path d="M633.7,101.2l0.2,1.4c-0.4,0.1-0.8,0.1-1.2,0.1c-0.6,0-1-0.1-1.3-0.3s-0.5-0.4-0.7-0.7c-0.1-0.3-0.2-0.9-0.2-1.8v-5.2h-1.1
		v-1.2h1.1v-2.2l1.5-0.9v3.2h1.5v1.2H632v5.3c0,0.4,0,0.7,0.1,0.8c0.1,0.1,0.1,0.2,0.3,0.3c0.1,0.1,0.3,0.1,0.5,0.1
		C633.2,101.3,633.4,101.3,633.7,101.2z"/>
	<path d="M634.6,99.9l1.5-0.2c0.1,0.6,0.3,1.1,0.7,1.4s0.9,0.5,1.6,0.5c0.7,0,1.2-0.1,1.6-0.4c0.3-0.3,0.5-0.6,0.5-1
		c0-0.3-0.2-0.6-0.5-0.8c-0.2-0.1-0.7-0.3-1.6-0.5c-1.1-0.3-1.9-0.5-2.3-0.7c-0.4-0.2-0.8-0.5-1-0.9s-0.3-0.8-0.3-1.2
		c0-0.4,0.1-0.8,0.3-1.1s0.4-0.6,0.8-0.9c0.2-0.2,0.6-0.3,1-0.4s0.9-0.2,1.3-0.2c0.7,0,1.3,0.1,1.9,0.3s0.9,0.5,1.2,0.8
		s0.4,0.8,0.5,1.4l-1.5,0.2c-0.1-0.5-0.3-0.8-0.6-1.1c-0.3-0.3-0.8-0.4-1.4-0.4c-0.7,0-1.2,0.1-1.5,0.4c-0.3,0.2-0.5,0.5-0.5,0.8
		c0,0.2,0.1,0.4,0.2,0.5c0.1,0.2,0.3,0.3,0.6,0.4c0.2,0.1,0.6,0.2,1.4,0.4c1.1,0.3,1.8,0.5,2.3,0.7s0.8,0.5,1,0.8s0.4,0.8,0.4,1.3
		s-0.1,1-0.4,1.5c-0.3,0.5-0.7,0.8-1.3,1.1s-1.2,0.4-1.9,0.4c-1.2,0-2.1-0.2-2.7-0.7C635.1,101.6,634.7,100.9,634.6,99.9z"/>
</g>
<g>
	<path d="M751.6,102.6V90.1h4.7c0.8,0,1.5,0,1.9,0.1c0.6,0.1,1.1,0.3,1.5,0.6s0.8,0.7,1,1.2s0.4,1.1,0.4,1.7c0,1.1-0.3,2-1,2.7
		s-1.9,1.1-3.7,1.1h-3.2v5.1L751.6,102.6L751.6,102.6z M753.2,96h3.2c1.1,0,1.8-0.2,2.3-0.6s0.7-1,0.7-1.7c0-0.5-0.1-1-0.4-1.3
		c-0.3-0.4-0.6-0.6-1-0.7c-0.3-0.1-0.8-0.1-1.5-0.1h-3.2L753.2,96L753.2,96z"/>
	<path d="M769,101.5c-0.6,0.5-1.1,0.8-1.6,1s-1.1,0.3-1.7,0.3c-1,0-1.8-0.2-2.3-0.7s-0.8-1.1-0.8-1.9c0-0.4,0.1-0.9,0.3-1.2
		c0.2-0.4,0.5-0.7,0.8-0.9s0.7-0.4,1.1-0.5c0.3-0.1,0.8-0.2,1.4-0.2c1.2-0.1,2.2-0.3,2.7-0.5c0-0.2,0-0.3,0-0.4
		c0-0.6-0.1-1.1-0.4-1.3c-0.4-0.3-1-0.5-1.8-0.5c-0.7,0-1.3,0.1-1.6,0.4s-0.6,0.7-0.8,1.3l-1.5-0.2c0.1-0.6,0.4-1.2,0.7-1.6
		s0.8-0.7,1.4-0.9c0.6-0.2,1.3-0.3,2.1-0.3s1.4,0.1,1.9,0.3c0.5,0.2,0.8,0.4,1.1,0.7c0.2,0.3,0.4,0.6,0.5,1c0.1,0.3,0.1,0.7,0.1,1.4
		v2.1c0,1.4,0,2.3,0.1,2.7c0.1,0.4,0.2,0.7,0.4,1.1h-1.6C769.1,102.3,769,101.9,769,101.5z M768.9,98.1c-0.6,0.2-1.4,0.4-2.5,0.6
		c-0.6,0.1-1.1,0.2-1.3,0.3c-0.3,0.1-0.5,0.3-0.6,0.5s-0.2,0.5-0.2,0.7c0,0.4,0.2,0.8,0.5,1s0.8,0.4,1.4,0.4c0.6,0,1.1-0.1,1.6-0.4
		s0.8-0.6,1-1.1c0.2-0.3,0.2-0.9,0.2-1.5v-0.5H768.9z"/>
	<path d="M772.5,103.4l1.5,0.2c0.1,0.5,0.2,0.8,0.5,1c0.4,0.3,0.9,0.4,1.6,0.4c0.7,0,1.3-0.1,1.7-0.4s0.7-0.7,0.8-1.2
		c0.1-0.3,0.1-1,0.1-2c-0.7,0.8-1.5,1.2-2.5,1.2c-1.2,0-2.2-0.5-2.9-1.4s-1-2-1-3.2c0-0.9,0.2-1.7,0.5-2.4c0.3-0.7,0.8-1.3,1.4-1.7
		c0.6-0.4,1.3-0.6,2.1-0.6c1.1,0,2,0.4,2.7,1.3v-1.1h1.4v7.9c0,1.4-0.1,2.4-0.4,3c-0.3,0.6-0.7,1.1-1.4,1.4
		c-0.6,0.3-1.4,0.5-2.3,0.5c-1.1,0-2-0.2-2.6-0.7S772.5,104.4,772.5,103.4z M773.8,97.9c0,1.2,0.2,2.1,0.7,2.6s1.1,0.8,1.8,0.8
		s1.3-0.3,1.8-0.8s0.7-1.4,0.7-2.6c0-1.1-0.2-1.9-0.7-2.5s-1.1-0.8-1.8-0.8s-1.3,0.3-1.7,0.8C774,96,773.8,96.8,773.8,97.9z"/>
	<path d="M788.8,99.7l1.6,0.2c-0.3,0.9-0.7,1.7-1.4,2.2s-1.5,0.8-2.6,0.8c-1.3,0-2.4-0.4-3.2-1.2c-0.8-0.8-1.2-2-1.2-3.4
		c0-1.5,0.4-2.7,1.2-3.6c0.8-0.8,1.8-1.3,3.1-1.3c1.2,0,2.2,0.4,3,1.2c0.8,0.8,1.2,2,1.2,3.5c0,0.1,0,0.2,0,0.4h-6.8
		c0.1,1,0.3,1.8,0.8,2.3s1.1,0.8,1.9,0.8c0.6,0,1-0.1,1.4-0.4C788.2,100.8,788.5,100.3,788.8,99.7z M783.7,97.2h5.1
		c-0.1-0.8-0.3-1.3-0.6-1.7c-0.5-0.6-1.1-0.9-1.9-0.9c-0.7,0-1.3,0.2-1.8,0.7C784,95.8,783.8,96.4,783.7,97.2z"/>
	<path d="M797.1,102.6V90.1h1.5v12.5H797.1z"/>
	<path d="M807,101.5c-0.6,0.5-1.1,0.8-1.6,1s-1.1,0.3-1.7,0.3c-1,0-1.8-0.2-2.3-0.7s-0.8-1.1-0.8-1.9c0-0.4,0.1-0.9,0.3-1.2
		c0.2-0.4,0.5-0.7,0.8-0.9s0.7-0.4,1.1-0.5c0.3-0.1,0.8-0.2,1.4-0.2c1.2-0.1,2.2-0.3,2.7-0.5c0-0.2,0-0.3,0-0.4
		c0-0.6-0.1-1.1-0.4-1.3c-0.4-0.3-1-0.5-1.8-0.5c-0.7,0-1.3,0.1-1.6,0.4s-0.6,0.7-0.8,1.3l-1.5-0.2c0.1-0.6,0.4-1.2,0.7-1.6
		s0.8-0.7,1.4-0.9c0.6-0.2,1.3-0.3,2.1-0.3s1.4,0.1,1.9,0.3c0.5,0.2,0.8,0.4,1.1,0.7c0.2,0.3,0.4,0.6,0.5,1c0.1,0.3,0.1,0.7,0.1,1.4
		v2.1c0,1.4,0,2.3,0.1,2.7c0.1,0.4,0.2,0.7,0.4,1.1h-1.6C807.1,102.3,807,101.9,807,101.5z M806.8,98.1c-0.6,0.2-1.4,0.4-2.5,0.6
		c-0.6,0.1-1.1,0.2-1.3,0.3c-0.3,0.1-0.5,0.3-0.6,0.5s-0.2,0.5-0.2,0.7c0,0.4,0.2,0.8,0.5,1s0.8,0.4,1.4,0.4c0.6,0,1.1-0.1,1.6-0.4
		s0.8-0.6,1-1.1c0.2-0.3,0.2-0.9,0.2-1.5v-0.5H806.8z"/>
	<path d="M810.7,106.1l-0.2-1.4c0.3,0.1,0.6,0.1,0.9,0.1c0.3,0,0.6-0.1,0.8-0.2s0.4-0.3,0.5-0.5s0.3-0.5,0.5-1.1
		c0-0.1,0.1-0.2,0.1-0.4l-3.4-9.1h1.7l1.9,5.3c0.2,0.7,0.5,1.4,0.7,2.1c0.2-0.7,0.4-1.4,0.6-2.1l1.9-5.3h1.5l-3.5,9.2
		c-0.4,1-0.7,1.7-0.9,2.1c-0.3,0.5-0.6,0.9-0.9,1.1c-0.4,0.2-0.8,0.4-1.3,0.4C811.4,106.3,811.1,106.2,810.7,106.1z"/>
	<path d="M819,98.1c0-1.7,0.5-2.9,1.4-3.7c0.8-0.7,1.7-1,2.9-1s2.3,0.4,3.1,1.2s1.2,1.9,1.2,3.4c0,1.2-0.2,2.1-0.5,2.8
		c-0.4,0.7-0.9,1.2-1.5,1.6c-0.7,0.4-1.4,0.6-2.2,0.6c-1.3,0-2.3-0.4-3.1-1.2S819,99.6,819,98.1z M820.6,98.1c0,1.2,0.3,2,0.8,2.6
		s1.1,0.9,1.9,0.9c0.8,0,1.4-0.3,1.9-0.9s0.8-1.5,0.8-2.7c0-1.1-0.3-2-0.8-2.6s-1.1-0.9-1.9-0.9c-0.8,0-1.4,0.3-1.9,0.9
		C820.8,96,820.6,96.9,820.6,98.1z"/>
	<path d="M835.2,102.6v-1.3c-0.7,1-1.7,1.5-2.9,1.5c-0.5,0-1-0.1-1.5-0.3s-0.8-0.5-1-0.8s-0.4-0.7-0.5-1.1c-0.1-0.3-0.1-0.8-0.1-1.4
		v-5.6h1.5v5c0,0.8,0,1.3,0.1,1.6c0.1,0.4,0.3,0.7,0.6,1c0.3,0.2,0.7,0.3,1.2,0.3s0.9-0.1,1.3-0.4c0.4-0.2,0.7-0.6,0.9-1
		s0.3-1,0.3-1.8v-4.9h1.5v9.1h-1.4V102.6z"/>
	<path d="M842.4,101.2l0.2,1.4c-0.4,0.1-0.8,0.1-1.2,0.1c-0.6,0-1-0.1-1.3-0.3c-0.3-0.2-0.5-0.4-0.6-0.7c-0.1-0.3-0.2-0.9-0.2-1.8
		v-5.2h-1.1v-1.2h1.1v-2.2l1.5-0.9v3.2h1.5v1.2h-1.5v5.3c0,0.4,0,0.7,0.1,0.8c0.1,0.1,0.1,0.2,0.3,0.3c0.1,0.1,0.3,0.1,0.5,0.1
		S842.1,101.3,842.4,101.2z"/>
	<path d="M843.3,99.9l1.5-0.2c0.1,0.6,0.3,1.1,0.7,1.4s0.9,0.5,1.6,0.5c0.7,0,1.2-0.1,1.6-0.4s0.5-0.6,0.5-1c0-0.3-0.2-0.6-0.5-0.8
		c-0.2-0.1-0.7-0.3-1.6-0.5c-1.1-0.3-1.9-0.5-2.3-0.7c-0.4-0.2-0.8-0.5-1-0.9s-0.3-0.8-0.3-1.2c0-0.4,0.1-0.8,0.3-1.1
		c0.2-0.3,0.4-0.6,0.8-0.9c0.2-0.2,0.6-0.3,1-0.4s0.9-0.2,1.3-0.2c0.7,0,1.3,0.1,1.9,0.3s0.9,0.5,1.2,0.8c0.3,0.4,0.4,0.8,0.5,1.4
		l-1.5,0.2c-0.1-0.5-0.3-0.8-0.6-1.1c-0.3-0.3-0.8-0.4-1.4-0.4c-0.7,0-1.2,0.1-1.5,0.4c-0.3,0.2-0.5,0.5-0.5,0.8
		c0,0.2,0.1,0.4,0.2,0.5c0.1,0.2,0.3,0.3,0.6,0.4c0.2,0.1,0.6,0.2,1.4,0.4c1.1,0.3,1.8,0.5,2.3,0.7c0.4,0.2,0.8,0.5,1,0.8
		s0.4,0.8,0.4,1.3s-0.1,1-0.4,1.5c-0.3,0.5-0.7,0.8-1.3,1.1s-1.2,0.4-1.9,0.4c-1.2,0-2.1-0.2-2.7-0.7S843.5,100.9,843.3,99.9z"/>
</g>
<g>
	<path class="st2" d="M277.6,37.6c0-0.4,0-0.6,0-1s0-0.6,0-1H90.7c0,0.4,0,0.6,0,1s0,0.6,0,1H277.6z"/>
	<path class="st2" d="M523.7,37.6c0-0.4,0-0.6,0-1s0-0.6,0-1H336.9c0,0.4,0,0.6,0,1s0,0.6,0,1H523.7z"/>
	<path class="st2" d="M759.8,37.6c0-0.4,0-0.6,0-1s0-0.6,0-1H583c0,0.4,0,0.6,0,1s0,0.6,0,1H759.8z"/>
</g>
</svg>
