<?xml version="1.0" encoding="utf-8"?>
<!-- Generator: Adobe Illustrator 26.5.3, SVG Export Plug-In . SVG Version: 6.00 Build 0)  -->
<svg version="1.1" id="Layer_1" xmlns="http://www.w3.org/2000/svg" xmlns:xlink="http://www.w3.org/1999/xlink" x="0px" y="0px"
	 viewBox="0 0 613.5 552.8" style="enable-background:new 0 0 613.5 552.8;" xml:space="preserve">
<style type="text/css">
	.st0{fill:#FFFFFF;}
</style>
<g>
	
		<image style="overflow:visible;opacity:0.4;" width="537" height="538" xlink:href="55EFC952.png"  transform="matrix(0.24 0 0 0.24 26.1167 -0.9398)">
	</image>
	<g>
		<circle class="st0" cx="90.5" cy="63.6" r="40.4"/>
	</g>
</g>
<g>
	
		<image style="overflow:visible;opacity:0.4;" width="658" height="658" xlink:href="55EFC956.png"  transform="matrix(0.24 0 0 0.24 170.1167 -2.6198)">
	</image>
	<g>
		<circle class="st0" cx="249.1" cy="76.4" r="54.8"/>
	</g>
</g>
<g>
	
		<image style="overflow:visible;opacity:0.4;" width="657" height="658" xlink:href="55EFC951.png"  transform="matrix(0.24 0 0 0.24 447.5567 -2.6198)">
	</image>
	<g>
		<circle class="st0" cx="526.4" cy="76.4" r="54.8"/>
	</g>
</g>
<g>
	
		<image style="overflow:visible;opacity:0.4;" width="670" height="670" xlink:href="55EFC953.png"  transform="matrix(0.24 0 0 0.24 -5.3233 211.7002)">
	</image>
	<g>
		<circle class="st0" cx="75.1" cy="292.2" r="56.3"/>
	</g>
</g>
<g>
	
		<image style="overflow:visible;opacity:0.4;" width="635" height="635" xlink:href="55EFC950.png"  transform="matrix(0.24 0 0 0.24 292.2767 216.0202)">
	</image>
	<g>
		<circle class="st0" cx="368.5" cy="292.2" r="52.1"/>
	</g>
</g>
<g>
	
		<image style="overflow:visible;opacity:0.4;" width="548" height="548" xlink:href="55EFC95E.png"  transform="matrix(0.24 0 0 0.24 145.3967 373.4602)">
	</image>
	<g>
		<circle class="st0" cx="211.2" cy="439.2" r="41.6"/>
	</g>
</g>
<g>
	
		<image style="overflow:visible;opacity:0.4;" width="664" height="663" xlink:href="55EFC955.png"  transform="matrix(0.24 0 0 0.24 423.3167 401.3002)">
	</image>
	<g>
		<circle class="st0" cx="503" cy="480.8" r="55.5"/>
	</g>
</g>
<image style="overflow:visible;" width="160" height="160" xlink:href="55EFC957.png"  transform="matrix(0.425 0 0 0.425 492.3967 42.3802)">
</image>
<image style="overflow:visible;" width="160" height="160" xlink:href="55EFC954.png"  transform="matrix(0.3906 0 0 0.3906 217.8967 45.1302)">
</image>
<image style="overflow:visible;" width="160" height="160" xlink:href="6BA81925.png"  transform="matrix(0.4094 0 0 0.4094 470.2233 447.4316)">
</image>
<image style="overflow:visible;" width="160" height="160" xlink:href="6BA8193B.png"  transform="matrix(0.3522 0 0 0.3522 62.3636 35.438)">
</image>
<image style="overflow:visible;" width="500" height="500" xlink:href="6BA8193D.png"  transform="matrix(0.1143 0 0 0.1143 182.612 408.3053)">
</image>
<image style="overflow:visible;" width="160" height="160" xlink:href="6BA8193F.jpg"  transform="matrix(0.4535 0 0 0.4535 38.8006 255.9228)">
</image>
<image style="overflow:visible;" width="160" height="160" xlink:href="6BA8193C.png"  transform="matrix(0.4259 0 0 0.4259 334.4673 258.1327)">
</image>
</svg>
